<svg width="20" height="21" viewBox="0 0 20 21" fill="none" xmlns="http://www.w3.org/2000/svg">
<path d="M19.13 9.35761L1.614 0.107613C1.324 -0.0443869 0.973998 0.00561301 0.740999 0.233613C0.510999 0.459613 0.447999 0.810613 0.590999 1.10161L4.953 10.0216L0.590999 18.9416C0.447999 19.2336 0.510999 19.5846 0.740999 19.8096C0.885998 19.9496 1.074 20.0216 1.264 20.0216C1.384 20.0216 1.504 19.9936 1.614 19.9346L19.131 10.6846C19.376 10.5546 19.531 10.2986 19.531 10.0206C19.531 9.74261 19.376 9.48861 19.131 9.35861L19.13 9.35761ZM2.948 2.50961L15.752 9.27161H6.255L2.948 2.51161V2.50961ZM6.255 10.7696H15.753L2.948 17.5346L6.255 10.7716V10.7696Z" fill="#21978B"/>
</svg>
