<svg width="201" height="140" viewBox="0 0 201 140" fill="none" xmlns="http://www.w3.org/2000/svg">
<path d="M190.5 100C190.5 88.181 188.172 76.4778 183.649 65.5585C179.126 54.6392 172.497 44.7177 164.14 36.3604C155.782 28.0031 145.861 21.3738 134.942 16.8508C124.022 12.3279 112.319 10 100.5 10C88.681 9.99999 76.9779 12.3279 66.0585 16.8508C55.1392 21.3737 45.2177 28.0031 36.8604 36.3604C28.5031 44.7176 21.8738 54.6391 17.3509 65.5584C12.8279 76.4777 10.5 88.181 10.5 100" stroke="#F8EFE2" stroke-width="20" stroke-linecap="round" stroke-linejoin="round"/>
<path d="M10.5 100C10.5 80.9939 16.517 62.4756 27.6885 47.0993C38.86 31.723 54.6126 20.2781 72.6885 14.4049C90.7644 8.53169 110.236 8.5317 128.312 14.4049C146.387 20.2781 162.14 31.7231 173.312 47.0994" stroke="#4A60A1" stroke-width="20" stroke-linecap="round" stroke-linejoin="round"/>
</svg>
